<?xml version="1.0" standalone="no"?>
<!DOCTYPE svg PUBLIC "-//W3C//DTD SVG 20010904//EN"
 "http://www.w3.org/TR/2001/REC-SVG-20010904/DTD/svg10.dtd">
<svg version="1.0" xmlns="http://www.w3.org/2000/svg"
 width="200.000000pt" height="75.000000pt" viewBox="0 0 200.000000 75.000000"
 preserveAspectRatio="xMidYMid meet">

<g transform="translate(0.000000,75.000000) scale(0.100000,-0.100000)"
fill="#000000" stroke="none">
<path d="M0 375 l0 -375 1000 0 1000 0 0 375 0 375 -1000 0 -1000 0 0 -375z
m668 313 c38 -23 71 -85 72 -134 0 -17 -11 -51 -23 -77 -19 -36 -21 -47 -10
-51 10 -4 13 -37 13 -140 l0 -135 -207 -3 c-115 -2 -218 -2 -230 0 -21 3 -22
9 -25 85 -3 82 -3 82 -29 80 -19 -1 -30 5 -38 23 -16 35 -15 36 24 28 43 -8
47 9 6 30 -85 45 -88 175 -4 227 46 29 113 22 152 -15 36 -34 48 -33 64 7 8
18 31 47 51 65 32 28 44 32 93 32 40 0 66 -6 91 -22z m738 -293 c6 -23 11 -25
63 -25 31 0 86 -3 124 -7 62 -5 67 -8 67 -29 0 -22 -4 -24 -42 -22 l-43 1 38
4 c24 3 37 9 37 19 0 12 -12 14 -57 12 l-58 -3 -3 -77 -3 -77 63 -4 63 -3 -65
0 -65 1 -6 85 -5 85 -2 -87 -2 -88 -30 0 -29 0 -3 83 -3 82 -23 -55 c-20 -50
-22 -44 -6 18 11 41 -22 14 -35 -29 -14 -45 -20 -44 -37 4 -6 18 -19 34 -28
35 -15 3 -17 -1 -12 -30 6 -32 5 -31 -14 10 -10 23 -24 42 -30 42 -7 0 -8 -6
0 -19 5 -11 10 -36 10 -56 0 -100 -147 -119 -166 -21 -7 42 1 71 29 96 l21 20
-32 0 c-18 0 -31 -3 -31 -7 1 -5 1 -45 0 -90 l-1 -83 -30 0 c-27 0 -30 3 -31
33 l-1 32 -13 -35 c-8 -21 -18 -33 -26 -31 -8 2 -33 4 -56 3 -35 0 -43 3 -43
18 0 23 -88 70 -130 70 l-30 0 0 60 0 60 31 0 c17 0 49 13 74 30 24 17 46 30
49 30 3 0 6 -18 6 -40 0 -38 2 -40 30 -40 25 0 30 4 30 23 0 13 6 31 13 41 12
16 15 15 29 -22 l15 -39 102 0 c55 0 101 4 101 8 0 15 45 18 53 4 4 -8 19 -15
32 -15 18 0 25 7 30 32 4 18 12 40 18 49 10 16 13 16 34 -7 13 -14 26 -36 29
-49z m337 -45 c-18 -4 -39 -11 -46 -16 -7 -5 -4 -1 6 9 11 9 31 17 46 16 24
-1 23 -2 -6 -9z m63 -11 c3 -6 -2 -18 -12 -27 -17 -16 -17 -16 -4 1 12 16 12
20 -1 28 -9 5 -10 9 -2 9 6 0 15 -5 19 -11z m-71 -29 c-3 -5 2 -10 11 -10 10
0 15 -3 11 -6 -10 -10 -39 5 -32 16 3 5 8 10 11 10 3 0 2 -4 -1 -10z m-106
-42 c-1 -16 -3 -18 -6 -6 -2 9 -14 19 -26 21 -18 4 -17 5 6 6 22 1 27 -3 26
-21z m171 12 c8 -5 11 -10 5 -10 -5 0 -17 5 -25 10 -8 5 -10 10 -5 10 6 0 17
-5 25 -10z m-86 -29 c-2 -3 -12 3 -22 13 -16 17 -16 18 5 5 12 -7 20 -15 17
-18z m94 -45 c-7 -6 -10 -7 -5 -2 4 6 8 21 8 36 2 25 2 25 6 1 3 -13 -1 -29
-9 -35z m-43 24 c0 -8 -8 -15 -18 -16 -12 -1 -13 -1 -2 3 20 6 19 20 -2 27
-14 4 -14 4 2 3 11 -1 20 -9 20 -17z m-49 -2 c4 -7 3 -8 -4 -4 -20 12 -34 -4
-20 -22 12 -15 11 -16 -5 -3 -13 10 -15 17 -6 27 14 17 26 18 35 2z m-56 -6
c0 -4 -18 -6 -40 -4 -22 2 -40 6 -40 8 0 2 18 4 40 4 22 0 40 -3 40 -8z m-275
-32 c-3 -5 -18 -9 -33 -9 l-27 1 30 8 c17 4 31 8 33 9 2 0 0 -3 -3 -9z m383
-7 c-10 -2 -28 -2 -40 0 -13 2 -5 4 17 4 22 1 32 -1 23 -4z m-1468 -73 c0 -5
-5 -10 -11 -10 -5 0 -7 5 -4 10 3 6 8 10 11 10 2 0 4 -4 4 -10z m-97 -20 c19
0 18 -2 -7 -15 -16 -9 -47 -20 -68 -24 -36 -8 -38 -7 -38 14 0 19 6 24 33 28
17 2 38 2 45 0 8 -1 23 -3 35 -3z m60 3 c-7 -2 -19 -2 -25 0 -7 3 -2 5 12 5
14 0 19 -2 13 -5z"/>
<path d="M520 620 c-29 -29 -34 -63 -15 -99 18 -35 57 -55 92 -46 61 15 85
101 40 143 -30 29 -89 30 -117 2z m100 -40 c0 -5 -5 -10 -11 -10 -5 0 -7 5 -4
10 3 6 8 10 11 10 2 0 4 -4 4 -10z m-75 -10 c3 -5 1 -10 -4 -10 -6 0 -11 5
-11 10 0 6 2 10 4 10 3 0 8 -4 11 -10z m75 -34 c0 -3 -4 -8 -10 -11 -5 -3 -10
-1 -10 4 0 6 5 11 10 11 6 0 10 -2 10 -4z m-50 -10 c0 -3 -4 -8 -10 -11 -5 -3
-10 -1 -10 4 0 6 5 11 10 11 6 0 10 -2 10 -4z"/>
<path d="M270 582 c-74 -24 -62 -135 15 -134 37 0 65 29 65 67 0 43 -43 79
-80 67z"/>
<path d="M409 459 l-24 -24 23 -3 c12 -2 32 -2 43 0 21 3 21 3 2 27 l-20 24
-24 -24z"/>
<path d="M330 386 c0 -8 -5 -16 -10 -18 -7 -2 -8 -37 -4 -101 4 -54 10 -93 14
-87 4 6 13 10 20 8 18 -4 25 144 8 183 -14 31 -28 38 -28 15z m7 -178 c-3 -8
-6 -5 -6 6 -1 11 2 17 5 13 3 -3 4 -12 1 -19z"/>
<path d="M391 365 c-13 -38 -5 -179 10 -169 5 3 9 0 9 -7 0 -12 15 -3 16 9 4
58 18 122 26 122 6 0 9 -25 8 -62 -3 -89 0 -99 15 -53 10 30 14 34 13 15 -1
-40 2 -54 8 -48 11 12 15 198 5 198 -6 0 -10 5 -8 11 5 27 -19 16 -32 -13
l-14 -32 -16 32 c-8 18 -17 32 -21 32 -3 0 -12 -16 -19 -35z"/>
<path d="M584 354 c-4 -29 -2 -54 6 -68 6 -13 10 -36 9 -52 -2 -16 2 -38 9
-49 11 -19 11 -19 13 5 l1 25 7 -25 c5 -17 10 6 14 69 7 88 6 96 -15 118 -12
13 -25 23 -29 23 -4 0 -11 -21 -15 -46z"/>
<path d="M540 371 c0 -11 -4 -23 -10 -26 -13 -8 -13 -68 0 -81 8 -8 7 -19 0
-39 -12 -30 -9 -37 18 -42 17 -2 18 8 18 102 1 81 -2 105 -13 105 -7 0 -13 -9
-13 -19z"/>
<path d="M664 196 c-8 -22 3 -33 18 -18 9 9 9 15 0 24 -9 9 -13 7 -18 -6z"/>
<path d="M1150 337 c-16 -8 -28 -26 -34 -50 -8 -31 -6 -42 11 -65 44 -59 133
-31 133 42 0 62 -58 100 -110 73z m66 -41 c3 -14 4 -33 1 -43 -3 -10 -5 -4 -6
15 -1 35 -27 55 -42 31 -5 -8 -9 -9 -9 -3 0 33 47 33 56 0z m-42 -61 c13 -19
13 -23 2 -19 -8 3 -16 14 -19 25 -7 25 -3 24 17 -6z"/>
<path d="M1046 333 c-4 -5 -13 -8 -19 -8 -11 0 -32 -64 -23 -72 3 -3 10 7 16
22 14 37 25 23 25 -33 0 -36 4 -47 18 -50 15 -3 17 5 17 72 0 57 -3 76 -13 76
-8 0 -17 -3 -21 -7z"/>
<path d="M1460 265 c0 -68 2 -75 20 -75 18 0 20 7 20 75 0 68 -2 75 -20 75
-18 0 -20 -7 -20 -75z"/>
<path d="M900 200 c0 -5 7 -10 16 -10 8 0 12 5 9 10 -3 6 -10 10 -16 10 -5 0
-9 -4 -9 -10z"/>
</g>
</svg>
